<?xml version="1.0" standalone="no"?>
<!DOCTYPE svg PUBLIC "-//W3C//DTD SVG 20010904//EN"
 "http://www.w3.org/TR/2001/REC-SVG-20010904/DTD/svg10.dtd">
<svg version="1.0" xmlns="http://www.w3.org/2000/svg"
 width="180.000000pt" height="180.000000pt" viewBox="0 0 180.000000 180.000000"
 preserveAspectRatio="xMidYMid meet">
<metadata>
Created by potrace 1.11, written by Peter Selinger 2001-2013
</metadata>
<g transform="translate(0.000000,180.000000) scale(0.100000,-0.100000)"
fill="#000000" stroke="none">
<path d="M861 1484 c-12 -9 -29 -33 -37 -54 -12 -29 -25 -41 -57 -54 -102 -40
-183 -164 -188 -287 -2 -61 -8 -81 -19 -74 -15 9 -43 -36 -46 -76 -2 -38 0
-42 27 -53 29 -10 30 -13 26 -59 -6 -62 6 -104 43 -155 l29 -41 -20 -45 c-18
-41 -52 -74 -71 -68 -11 3 -114 -25 -136 -37 -12 -7 -48 -8 -90 -5 -126 11
-248 -49 -299 -145 -21 -40 -23 -57 -23 -187 l0 -142 899 -1 899 -1 -2 128
c-2 103 -7 136 -23 173 -30 66 -73 111 -140 144 -51 26 -69 29 -153 30 -52 1
-102 4 -110 8 -36 14 -131 37 -138 33 -16 -10 -52 31 -76 85 l-24 56 21 21
c16 16 22 38 26 93 5 59 9 73 24 75 10 1 24 7 30 13 19 15 20 71 1 92 -10 12
-17 40 -19 81 -4 92 -14 143 -39 204 -35 85 -61 110 -145 136 -70 22 -75 25
-93 65 -24 54 -47 68 -77 47z m-93 -229 c-3 -3 -9 2 -12 12 -6 14 -5 15 5 6 7
-7 10 -15 7 -18z m-93 -135 c-3 -5 -12 -10 -18 -10 -7 0 -6 4 3 10 19 12 23
12 15 0z m-1 -118 c3 -5 -1 -9 -9 -9 -8 0 -12 4 -9 9 3 4 7 8 9 8 2 0 6 -4 9
-8z m-24 -222 c0 -5 -2 -10 -4 -10 -3 0 -8 5 -11 10 -3 6 -1 10 4 10 6 0 11
-4 11 -10z m118 -465 c-3 -3 -9 2 -12 12 -6 14 -5 15 5 6 7 -7 10 -15 7 -18z
m-441 -10 c0 -8 -4 -12 -9 -9 -5 3 -6 10 -3 15 9 13 12 11 12 -6z m-177 -19
c0 -2 -7 -7 -16 -10 -8 -3 -12 -2 -9 4 6 10 25 14 25 6z m-35 -46 c-3 -5 -12
-10 -18 -10 -7 0 -6 4 3 10 19 12 23 12 15 0z m10 -169 c3 -5 2 -12 -3 -15 -5
-3 -9 1 -9 9 0 17 3 19 12 6z"/>
</g>
</svg>
